<svg xmlns="http://www.w3.org/2000/svg" width="91.979" height="91.979" viewBox="0 0 91.979 91.979"><g transform="translate(-2250.822 1635)"><path d="M2298.038-1635a45.99,45.99,0,0,0-45.99,45.991,45.989,45.989,0,0,0,45.988,45.988,45.989,45.989,0,0,0,45.991-45.991A45.989,45.989,0,0,0,2298.04-1635m43,45.99a43,43,0,0,1-43,43,43,43,0,0,1-43-43,43,43,0,0,1,43-43,43,43,0,0,1,43,43" transform="translate(-1.227 0)" fill="#707070"/><path d="M2333.431-1580.89v1.5a25.807,25.807,0,0,1,25.777,25.777h1.5a27.272,27.272,0,0,0-27.273-27.272m0,53.049a25.807,25.807,0,0,1-25.777-25.777h-1.5a27.272,27.272,0,0,0,27.272,27.272" transform="translate(-36.619 -35.393)" fill="#707070"/><path d="M2439.716-1585.078c.623.671,1.525,1.753,2.031,2.408l9.312-5.911c-.466-.608-1.205-1.533-1.761-2.183l-5.9,3.9-.4.346.3-.439,2.6-5.2-1.84-1.841-5.2,2.6-.438.3.346-.4,3.9-5.9c-.686-.586-1.344-1.121-2.186-1.771l-5.915,9.307c.749.578,1.736,1.423,2.364,2l5.567-2.888.355-.262-.262.357Z" transform="translate(-120.613 -23.443)" fill="#707070"/><path d="M2373.278-1610.085l2.545-5.7.161-.5-.046.528.268,7.615c.893.085,1.814.207,2.725.359l-.415-11.28c-1.272-.141-2.536-.242-3.8-.3l-2.5,6.221-.088.463-.09-.463-2.5-6.221c-1.266.054-2.532.155-3.8.3l-.415,11.28c.91-.151,1.831-.274,2.724-.359l.267-7.615-.046-.528.164.5,2.543,5.7Z" transform="translate(-75.307 -10.228)" fill="#707070"/><path d="M2302.874-1583.93c1.47-1.548,2.3-3.34.831-5.048a2.862,2.862,0,0,0-3.26-.674l-.11.046.034-.1a2.687,2.687,0,0,0-.927-2.818,2.775,2.775,0,0,0-2.057-.573c-1.383.141-2.445,1.084-5.34,4.312-.872.974-2.144,2.51-2.907,3.505l7.946,7.54c2.641-2.92,3.714-4,5.79-6.192m-10.369-1.843a48.933,48.933,0,0,1,4.075-4.437,2.136,2.136,0,0,1,.829-.532.986.986,0,0,1,.753.133.986.986,0,0,1,.43.63,1.746,1.746,0,0,1-.591,1.47c-.847.953-3.948,4.2-3.948,4.2Zm3.111,2.952s3.025-3.2,4.01-4.218a3.637,3.637,0,0,1,.915-.784,1.028,1.028,0,0,1,1.069.022.941.941,0,0,1,.407.994,2.943,2.943,0,0,1-.783,1.224c-.414.447-4,4.285-4.005,4.29Z" transform="translate(-25.485 -27.396)" fill="#707070"/><path d="M2333.431-1580.89v27.272h-27.272a27.258,27.258,0,0,1,7.984-19.289,27.261,27.261,0,0,1,19.288-7.983" transform="translate(-36.619 -35.392)" fill="#0966af"/><path d="M2412.272-1502.051a27.26,27.26,0,0,1-7.984,19.288A27.258,27.258,0,0,1,2385-1474.78v-27.273Z" transform="translate(-88.189 -86.959)" fill="#0966af"/></g></svg>