<svg id="Camada_1" data-name="Camada 1" xmlns="http://www.w3.org/2000/svg" viewBox="0 0 24 24"><path id="Caminho_169" data-name="Caminho 169" d="M15.39,10.78a1.09,1.09,0,0,1-.07-.24,1.18,1.18,0,0,0-.07-.2,1.08,1.08,0,0,0-.11-.18L15,10l-.14-.11-.17-.11-.22,0-.22,0-.27,0a.57.57,0,0,0-.22.07l-.18.08a1.1,1.1,0,0,0-.18.14.62.62,0,0,1-.11.17,1.74,1.74,0,0,0-.11.18.85.85,0,0,1-.09.22.57.57,0,0,0,0,.22A.94.94,0,0,0,13,11a1.79,1.79,0,0,0,0,.23v.93a1.94,1.94,0,0,0,0,.24,2.17,2.17,0,0,0,.07.24,1.59,1.59,0,0,1,.07.2.66.66,0,0,0,.06.2.62.62,0,0,1,.14.18.46.46,0,0,0,.13.18.42.42,0,0,1,.15.11.56.56,0,0,0,.2.11.76.76,0,0,0,.2.06,1.35,1.35,0,0,0,.49,0,.66.66,0,0,0,.2-.06l.18-.11a1.29,1.29,0,0,0,.17-.16.88.88,0,0,0,.12-.15l.11-.2c0-.06.05-.13.08-.2l.09-.25a.75.75,0,0,1,0-.2,1.94,1.94,0,0,0,0-.24v-.93a1.64,1.64,0,0,0,0-.22A1.42,1.42,0,0,0,15.39,10.78ZM15,12a2.83,2.83,0,0,0,0,.29,2.52,2.52,0,0,0-.06.29,1.59,1.59,0,0,1-.07.2.83.83,0,0,1-.11.15.57.57,0,0,0-.11.16l-.18.06a.69.69,0,0,1-.35,0,.26.26,0,0,1-.13-.06.19.19,0,0,1-.14-.05L13.7,13l-.09-.11a.29.29,0,0,1,0-.16L13.44,12V11.4l.13-.66.09-.16a.21.21,0,0,0,0-.11l.11-.09a.31.31,0,0,0,.11-.09.23.23,0,0,1,.14,0h.33a.15.15,0,0,1,.11,0l.13.09.09.09.09.16a.2.2,0,0,1,0,.15l.09.31.05.62c0,.11,0,.22,0,.33ZM22.2,7.77A10.84,10.84,0,0,0,12,1a11.06,11.06,0,0,0-4.21.8A10.65,10.65,0,0,0,4.23,4.19,10.59,10.59,0,0,0,1,12,10.91,10.91,0,0,0,7.77,22.2,11.06,11.06,0,0,0,12,23,10.85,10.85,0,0,0,23,12.31V12a11.24,11.24,0,0,0-.79-4.21Zm-1,5.4a7.19,7.19,0,0,1-2.08,1.11l-.12,0a16.07,16.07,0,0,0,.16-2.3A17.61,17.61,0,0,0,19,9.72l.11,0a6.3,6.3,0,0,1,2.08,1.06,2.25,2.25,0,0,1,.41.46q0,.35,0,.69c0,.25,0,.5,0,.74a2.59,2.59,0,0,1-.41.46Zm-6.86,8a5.62,5.62,0,0,1-.64.34,10.34,10.34,0,0,1-1.75.15,10.17,10.17,0,0,1-1.75-.15,5.18,5.18,0,0,1-.62-.33,7.32,7.32,0,0,1-2-2.13,10.79,10.79,0,0,1-1.44-3.21c0-.08,0-.16-.05-.24.59.15,1.2.27,1.85.37a25.84,25.84,0,0,0,4,.29A26.44,26.44,0,0,0,16.05,16a17.42,17.42,0,0,0,1.83-.37l-.06.24a11.69,11.69,0,0,1-1.42,3.21,7.11,7.11,0,0,1-2,2.13Zm1.52-6.11a25.52,25.52,0,0,1-3.91.27,26.54,26.54,0,0,1-3.88-.27,18.7,18.7,0,0,1-2.2-.46,16.66,16.66,0,0,1,0-5.18,18.54,18.54,0,0,1,2.21-.49A25.12,25.12,0,0,1,12,8.65a25.76,25.76,0,0,1,3.92.29,20.52,20.52,0,0,1,2.2.48,15.59,15.59,0,0,1,0,5.19,18,18,0,0,1-2.21.46ZM2.36,12.72c0-.25,0-.49,0-.75s0-.46,0-.68a2,2,0,0,1,.41-.47A6.3,6.3,0,0,1,4.85,9.76l.07,0A15.69,15.69,0,0,0,4.76,12a17.47,17.47,0,0,0,.16,2.28l-.07,0a7.19,7.19,0,0,1-2.08-1.11,2.49,2.49,0,0,1-.41-.45ZM9.61,2.81a4.47,4.47,0,0,1,.61-.33,10.34,10.34,0,0,1,3.51,0,4.31,4.31,0,0,1,.64.33,7.11,7.11,0,0,1,2,2.13,12,12,0,0,1,1.42,3.23l.06.26c-.58-.15-1.19-.27-1.83-.37A26.44,26.44,0,0,0,12,7.77a25.84,25.84,0,0,0-4,.29c-.65.1-1.27.23-1.86.38l.06-.27A10.66,10.66,0,0,1,7.59,4.94,7.32,7.32,0,0,1,9.61,2.81ZM21,8.28a9.06,9.06,0,0,1,.49,1.61,8.22,8.22,0,0,0-2-1l-.59-.2c-.05-.28-.11-.55-.18-.82a12.13,12.13,0,0,0-1.53-3.45,10.33,10.33,0,0,0-.91-1.16,9.72,9.72,0,0,1,2.59,1.87A9.67,9.67,0,0,1,21,8.28ZM5.16,5.16A9.68,9.68,0,0,1,7.71,3.31a8.8,8.8,0,0,0-.87,1.14A12.46,12.46,0,0,0,5.29,7.9c-.07.27-.14.55-.2.83l-.55.19a8.22,8.22,0,0,0-2,1A9.06,9.06,0,0,1,3,8.28,9.67,9.67,0,0,1,5.16,5.16ZM3,15.72a9.11,9.11,0,0,1-.49-1.59,9.72,9.72,0,0,0,2,1l.57.19c0,.26.11.53.18.78a12.33,12.33,0,0,0,1.55,3.45,8.19,8.19,0,0,0,.81,1.12,9.91,9.91,0,0,1-2.49-1.82A9.49,9.49,0,0,1,3,15.72Zm15.8,3.12a10.23,10.23,0,0,1-2.53,1.85,10.54,10.54,0,0,0,.85-1.14,12.13,12.13,0,0,0,1.53-3.45c.06-.26.12-.51.17-.77l.6-.2a9.76,9.76,0,0,0,2-1A8.59,8.59,0,0,1,21,15.72a9.67,9.67,0,0,1-2.13,3.12Zm-1.35-8.46a.61.61,0,0,1,0-.13.65.65,0,0,0-.09-.16.76.76,0,0,0-.08-.11.47.47,0,0,0-.11-.13L17,9.76l-.13,0-.18,0-.18,0-.13,0-.15.09a.28.28,0,0,0-.11.13.44.44,0,0,0-.09.11.65.65,0,0,0-.09.16s0,.09,0,.13a.56.56,0,0,0,0,.36s0,.08,0,.13a.6.6,0,0,0,.09.15.31.31,0,0,0,.09.11.3.3,0,0,0,.11.14l.15.09a.31.31,0,0,1,.16,0l.15,0,.18,0,.13,0,.16-.09a.53.53,0,0,0,.11-.14.44.44,0,0,0,.08-.11.6.6,0,0,0,.09-.15.5.5,0,0,1,0-.13,1.1,1.1,0,0,0,0-.18.88.88,0,0,0,0-.17Zm-.38.27a.18.18,0,0,1,0,.09l-.09.08-.14.09-.13.05-.18-.05-.09-.09-.08-.08a.12.12,0,0,0,0-.09.29.29,0,0,1,0-.09l.05-.13.09-.14.08-.09.18,0,.13,0,.14.09.09.14,0,.13Zm-4.65,1.24a.57.57,0,0,0-.11-.22,1.43,1.43,0,0,0-.15-.18.41.41,0,0,0-.16-.16l-.2-.11a.74.74,0,0,0-.24-.11l-.25,0-.22,0-.17.07a.7.7,0,0,0-.23.11.47.47,0,0,0-.13.15,2.46,2.46,0,0,1,0-.26,2.68,2.68,0,0,1,.07-.27.33.33,0,0,1,0-.17l.09-.18.14-.15.08-.12a.29.29,0,0,0,.16,0l.15,0,.23,0a.42.42,0,0,1,.13.07.28.28,0,0,1,.13.11.72.72,0,0,1,.09.2h.53a1.5,1.5,0,0,1-.06-.22,1.34,1.34,0,0,0-.07-.18.58.58,0,0,0-.11-.15.57.57,0,0,1-.11-.16l-.18-.09-.18-.09a.47.47,0,0,1-.17,0l-.22,0a1.06,1.06,0,0,0-.31,0l-.27.09a.92.92,0,0,0-.22.22l-.18.27a1.77,1.77,0,0,0-.15.31,1.82,1.82,0,0,0-.11.4c0,.15,0,.29-.07.44s0,.33,0,.49,0,.24,0,.35a1.08,1.08,0,0,0,.07.31,1.17,1.17,0,0,0,.11.33.79.79,0,0,0,.15.25.48.48,0,0,0,.16.22,1.62,1.62,0,0,1,.2.18l.26.08a1.12,1.12,0,0,0,.31.05l.25,0,.24-.07.2-.11a1,1,0,0,0,.2-.16.46.46,0,0,0,.13-.2q0-.11.09-.24l.09-.27a.75.75,0,0,0,0-.26,1.23,1.23,0,0,0,0-.27,1.11,1.11,0,0,0-.07-.26Zm-.49.53v.17a.34.34,0,0,1,0,.18l-.07.13a.2.2,0,0,1-.06.09.44.44,0,0,1-.11.09l-.11.09-.11,0a.54.54,0,0,1-.31,0L11,13.13a.2.2,0,0,1-.09-.05L10.82,13a1.09,1.09,0,0,0-.08-.15l-.09-.11V12.2a.34.34,0,0,1,0-.18l.09-.11a.31.31,0,0,1,.09-.11l.09-.09a.15.15,0,0,1,.13,0,.35.35,0,0,0,.11,0l.11,0,.16,0a.35.35,0,0,0,.11,0l.13.08.09.09a.24.24,0,0,1,.06.11.77.77,0,0,0,.07.16.19.19,0,0,1,.05.13Zm-2.45-.09a.59.59,0,0,1,0,.13,2.64,2.64,0,0,1,0,.29.41.41,0,0,1-.11.24,1.13,1.13,0,0,1-.11.22.93.93,0,0,1-.16.18.93.93,0,0,1-.18.16.76.76,0,0,1-.22.11l-.24.06-.24,0a1,1,0,0,1-.25,0,.76.76,0,0,1-.2-.06l-.22-.09a.38.38,0,0,1-.13-.09l-.16-.15a.56.56,0,0,1-.11-.2l-.09-.2a2.07,2.07,0,0,0-.08-.2h.57a.52.52,0,0,0,0,.11.41.41,0,0,0,.07.11l.07.06.06.07a.41.41,0,0,0,.11.07l.11,0,.22,0a.41.41,0,0,0,.16,0l.15,0a.26.26,0,0,1,.11-.07.21.21,0,0,0,.18-.18,1,1,0,0,1,.07-.15A.24.24,0,0,0,9,12.66a.41.41,0,0,0,0-.16.4.4,0,0,0,0-.15.24.24,0,0,0-.06-.11l-.07-.13A.35.35,0,0,0,8.79,12a.47.47,0,0,0-.12-.09.22.22,0,0,0-.11,0,.18.18,0,0,0-.13,0H7.91v-.49h.46a.15.15,0,0,0,.11,0l.11,0a.41.41,0,0,0,.11-.07.31.31,0,0,0,.07-.09A.47.47,0,0,1,8.83,11a.31.31,0,0,1,0-.13.59.59,0,0,0,0-.13.36.36,0,0,0,0-.11.61.61,0,0,1,0-.11.73.73,0,0,1-.06-.14.08.08,0,0,0-.07,0,.22.22,0,0,0-.09-.07l-.13-.06H8.26a.78.78,0,0,0-.22,0,.67.67,0,0,0-.18.07.24.24,0,0,0-.13.13.35.35,0,0,0-.05.18H7.11a1.58,1.58,0,0,0,.06-.23.87.87,0,0,1,.07-.17.57.57,0,0,1,.11-.16l.15-.15.16-.09a.72.72,0,0,1,.2-.09.34.34,0,0,1,.18,0h.22l.22,0,.22,0,.2.09a.24.24,0,0,1,.15.13l.16.18a1.08,1.08,0,0,1,.11.18,1.42,1.42,0,0,1,.07.22,2.28,2.28,0,0,1,0,.26.36.36,0,0,1,0,.11.26.26,0,0,0,0,.11l-.08.23-.14.17L9,11.58l.18.17.09.09.08.09.07.13.07.14a.59.59,0,0,0,0,.13Z"/></svg>