<svg id="Camada_1" data-name="Camada 1" xmlns="http://www.w3.org/2000/svg" viewBox="0 0 24 24"><path id="Caminho_6" data-name="Caminho 6" d="M18.66,5.26a9.81,9.81,0,0,1,2.1,3.07,9.15,9.15,0,0,1-.55,8.29,9.72,9.72,0,0,1-3.48,3.44A9.24,9.24,0,0,1,12,21.33h0a9.11,9.11,0,0,1-4.5-1.15l-5,1.32,1.36-4.88a9.06,9.06,0,0,1-1.28-4.71,9.05,9.05,0,0,1,1.28-4.7A9.58,9.58,0,0,1,7.29,3.77a9.32,9.32,0,0,1,8.29-.55A9.79,9.79,0,0,1,18.66,5.26ZM12,19.76a7.66,7.66,0,0,0,3.94-1.06,8.06,8.06,0,0,0,2.91-2.86,7.55,7.55,0,0,0,1.08-3.93,7.2,7.2,0,0,0-.64-3,8.23,8.23,0,0,0-1.76-2.57A7.87,7.87,0,0,0,15,4.66a7.88,7.88,0,0,0-6.92.46A8,8,0,0,0,5.21,8a7.71,7.71,0,0,0,.17,8.08l.17.3-.8,2.88,3-.76.3.17A7.56,7.56,0,0,0,12,19.76Zm4.28-5.9.13.09a.68.68,0,0,1,.34.21,1.19,1.19,0,0,1,0,.42,2.39,2.39,0,0,1-.17.7,1.75,1.75,0,0,1-.68.72,2.07,2.07,0,0,1-.91.4,3.7,3.7,0,0,1-1.15,0,9.51,9.51,0,0,1-1.7-.59,9.65,9.65,0,0,1-3.94-3.47l-.08-.09a4.26,4.26,0,0,1-.93-2.41A2.68,2.68,0,0,1,8,7.92l0,0a.9.9,0,0,1,.63-.3h.51a.55.55,0,0,1,.28.07A.63.63,0,0,1,9.63,8l.72,1.74a.47.47,0,0,1,0,.43,3,3,0,0,1-.55.76.83.83,0,0,0-.21.28c0,.07,0,.14.08.23a5.49,5.49,0,0,0,1.4,1.74,10.32,10.32,0,0,0,1.78,1.06c.23.12.4.1.51,0a11.89,11.89,0,0,0,.76-.93c.06-.11.13-.17.21-.17a1.36,1.36,0,0,1,.3,0c.23.08.76.34,1.61.77Z"/></svg>